<svg xmlns="http://www.w3.org/2000/svg" width="1343.647" height="362.284" viewBox="0 0 1343.647 362.284">
  <g id="logo-svg" transform="translate(-328.908 -341.237)">
    <g id="Group_493" data-name="Group 493" transform="matrix(0.996, 0.087, -0.087, 0.996, 330.271, 341.237)">
      <path id="Path_655" data-name="Path 655" d="M12.469,0,0,21.572s19.934-5.753,39.235-5.753,37.959,5.753,37.959,5.753L62.81,0Z" transform="matrix(0.891, -0.454, 0.454, 0.891, 166.899, 281.913)" fill="#ff9f0c" stroke="#ff9f0c" stroke-width="1"/>
      <g id="Group_15" data-name="Group 15" transform="translate(0 29.43) rotate(-6)">
        <g id="Group_473" data-name="Group 473" transform="translate(0 0)">
          <path id="Path_596" data-name="Path 596" d="M124.363,14.106C116.9,5.078,106.729,0,96.124,0S75.352,5.078,67.884,14.106C27.654,59.306.767,145.611,0,252.4c0,8.5,0,16.881.434,25.169a7.822,7.822,0,0,0,1.558,5.034,5.45,5.45,0,0,0,4.08,2.215,4.841,4.841,0,0,0,3.393-1.988c49.133-62.48,124.031-62.48,173.163,0a4.523,4.523,0,0,0,3.932,1.971,4.751,4.751,0,0,0,3.721-2.491,9.362,9.362,0,0,0,1.4-4.679q.561-12.386.561-25.078C192.22,150.29,164.875,61.2,124.363,14.106Zm11.506,159.029c.2,3.9-2.259,7.263-5.511,7.525a4.31,4.31,0,0,1-2.857-1.224c-18.627-16.632-44.153-16.632-62.78,0a4.317,4.317,0,0,1-4.2,1.031,5.289,5.289,0,0,1-3.3-3.294,9.87,9.87,0,0,1-.867-4.1h0C56.685,134.6,67.807,103.5,84.415,87.229c6.77-6.755,16.6-6.755,23.367,0,16.76,16.973,28.061,48.931,28.061,85.845Z" transform="translate(0 68.894) rotate(-21)" fill="#ff5d5d"/>
        </g>
      </g>
    </g>
    <path id="Path_589" data-name="Path 589" d="M247,727.209V552.543a8.2,8.2,0,0,1,8.2-8.2h21.96a11.08,11.08,0,0,1,11.106,11.08v10.118a62.2,62.2,0,0,1,19.219-19.05,45.787,45.787,0,0,1,23.769-6.189,62.183,62.183,0,0,1,24.165,4.466,50.282,50.282,0,0,1,18.6,13.51q15.714,17.975,15.744,49.686,0,30.44-15.744,49.178a52.6,52.6,0,0,1-18.173,14.132,54.916,54.916,0,0,1-23.062,4.636A51.274,51.274,0,0,1,306.494,670a53.7,53.7,0,0,1-18-19.615,69.959,69.959,0,0,1,1.017,9.3c.17,2.431.254,6.9.254,13.34v54.1Zm39.568-119.185a33.462,33.462,0,0,0,7.913,23.487c4.861,5.653,11.868,8.478,21.086,8.478a27.473,27.473,0,0,0,21.338-8.478,34.592,34.592,0,0,0,7.657-23.487c0-9.948-2.572-17.721-7.659-23.345a27.473,27.473,0,0,0-21.338-8.478,26.4,26.4,0,0,0-21.085,8.478Q286.568,592.987,286.568,608.023Z" transform="translate(574.085 -100.025)" fill="#4d4d4d"/>
    <path id="Path_589-2" data-name="Path 589" d="M.242,136.622.089,12.337c0-4.561-.531-8.767,1-12.337H39.033C42-.007,41.66,12.276,41.66,15.241V25.432A62.646,62.646,0,0,1,61.022,6.241,46.124,46.124,0,0,1,84.968.008a62.636,62.636,0,0,1,24.343,4.5,50.651,50.651,0,0,1,18.735,13.612q15.831,18.109,15.86,50.055,0,30.664-15.86,49.543a52.988,52.988,0,0,1-18.308,14.236,55.322,55.322,0,0,1-23.234,4.67,51.649,51.649,0,0,1-26.479-5.953,54.1,54.1,0,0,1-18.137-19.76,70.456,70.456,0,0,1,1.025,9.368c.171,2.449,0,9.853,0,16.345ZM39.951,68.23a33.713,33.713,0,0,0,7.972,23.662c4.9,5.694,11.959,8.542,21.242,8.542a27.677,27.677,0,0,0,21.5-8.542A34.852,34.852,0,0,0,98.379,68.23c0-10.023-2.591-17.852-7.716-23.519a27.676,27.676,0,0,0-21.5-8.542,26.6,26.6,0,0,0-21.243,8.543Q39.951,53.082,39.951,68.23Z" transform="translate(812.469 581.019) rotate(180)" fill="#4d4d4d"/>
    <path id="Path_590" data-name="Path 590" d="M314.663,688.13l-.2-87.6a3.487,3.487,0,0,0-3.285-3.658h-10.41a3.487,3.487,0,0,1-3.285-3.658V568.985a3.486,3.486,0,0,1,3.285-3.657h13.7V531.307a3.516,3.516,0,0,1,3.285-3.686h33.228a3.517,3.517,0,0,1,3.285,3.686v33.964h13.467a3.487,3.487,0,0,1,3.285,3.659v24.228a3.487,3.487,0,0,1-3.285,3.659H357.62a3.486,3.486,0,0,0-3.285,3.657v87.6a3.487,3.487,0,0,1-3.285,3.658H317.973A3.5,3.5,0,0,1,314.663,688.13Z" transform="translate(666.212 -110.849)" fill="#4d4d4d"/>
    <path id="Path_591" data-name="Path 591" d="M452.587,540.553V553.89a9.158,9.158,0,0,1-4.944,7.994,10.3,10.3,0,0,1-9.809-.068h-.149a8.674,8.674,0,0,0-.981-.483,39.857,39.857,0,0,0-16.18-3.439,35.333,35.333,0,0,0-26.479,10.48,36.675,36.675,0,0,0-5.693,7.825,34.809,34.809,0,0,0-3.262,9.213,49.076,49.076,0,0,0-1.109,10.439A36.071,36.071,0,0,0,394.238,622a35.693,35.693,0,0,0,26.287,10.217,38.6,38.6,0,0,0,16.693-3.842l.831-.423a10.294,10.294,0,0,1,9.7.106A9.148,9.148,0,0,1,452.588,636v13.478a9.29,9.29,0,0,1-6.1,8.55,74.825,74.825,0,0,1-11.832,3.641,81.631,81.631,0,0,1-18.036,2.011,84.175,84.175,0,0,1-21.042-2.554,57.549,57.549,0,0,1-17.652-7.744,69.435,69.435,0,0,1-23.6-24.581,70.355,70.355,0,0,1-8.145-33.752,68.807,68.807,0,0,1,5.266-27.2,56.659,56.659,0,0,1,6.013-11.324,76.879,76.879,0,0,1,9.446-11.062,64.271,64.271,0,0,1,22.363-14.321,75.733,75.733,0,0,1,27.395-4.747A87.873,87.873,0,0,1,434.66,528.4a106.634,106.634,0,0,1,11.9,3.741,9.23,9.23,0,0,1,6.031,8.407Z" transform="translate(698.777 -81.544)" fill="#4d4d4d"/>
    <path id="Path_593" data-name="Path 593" d="M597.441,545.12l-2.707,177.287c0,2.941.389,9.907-2.551,9.923H556.84c-2.951,0-3.552-6.972-3.552-9.923v-.4a5.344,5.344,0,0,0-9.152-3.694,49.162,49.162,0,0,1-10.319,7.9,43.1,43.1,0,0,1-23.793,6.453q-26.833,0-42.809-18.7t-16-49.97q0-30.357,16.06-49.461a57.052,57.052,0,0,1,67.567-12.622,52.675,52.675,0,0,1,18.194,19.413c-.341-2.274-.653-5.685-1-10.375s-.512-9.21-.512-12.422l2.707-53.406a5.315,5.315,0,0,1,5.315-5.315h32.634a5.315,5.315,0,0,1,5.258,5.315ZM554.766,664.049c0-10.006-2.586-17.851-7.732-23.48a28.767,28.767,0,0,0-21.746-8.528,27.716,27.716,0,0,0-21.518,8.528c-5.23,5.685-7.846,13.559-7.846,23.48s2.613,17.879,7.846,23.622a27.659,27.659,0,0,0,21.518,8.528,28.739,28.739,0,0,0,21.746-8.528Q554.766,679.2,554.766,664.049Z" transform="translate(841.417 -148.783)" fill="#4d4d4d"/>
    <path id="Path_594" data-name="Path 594" d="M638.857,623.453l-90.3,1.347q.4,15.045,7.509,22.927t21.437,8.166a36.222,36.222,0,0,0,17.482-3.955,26.149,26.149,0,0,0,7.309-6.046,8.769,8.769,0,0,1,10.06-2.723l18.485,7.424a8.6,8.6,0,0,1,3.525,13.269,47.461,47.461,0,0,1-16.193,13.1A81.561,81.561,0,0,1,580.05,685.1q-33.675,0-54.079-18.856-20.29-18.341-20.261-49.092a67.722,67.722,0,0,1,20.261-50.124q20.29-19.776,51.585-19.776c21.267,0,30.408,5.329,42.73,18.686a66.348,66.348,0,0,1,14.043,24.045,98.288,98.288,0,0,1,4.585,31.323Zm-48.032-24.3a8.368,8.368,0,0,0,5.731-14.329l-3.181-3.038a24.445,24.445,0,0,0-17.482-6.734,25.507,25.507,0,0,0-17.6,5.988,27.38,27.38,0,0,0-4.069,4.986,8.6,8.6,0,0,0,7.194,13.24Z" transform="translate(940.912 -101.589)" fill="#4d4d4d"/>
    <path id="Path_595" data-name="Path 595" d="M557.78,678.59V557.674c0-3.832,2.522-6.944,5.641-6.96h25.227c3.119.017,5.641,3.128,5.641,6.961v.18a7.048,7.048,0,0,0,3.695,6.487,5,5,0,0,0,6.244-1.956,41.026,41.026,0,0,1,5.4-6,34.689,34.689,0,0,1,23.785-8.7,29.071,29.071,0,0,1,4.664.27l2.173.21a7.005,7.005,0,0,1,2.442.331l-3,35.134a7.365,7.365,0,0,1-2.311,4.85,4.828,4.828,0,0,1-4.478,1.15h-1.2a59.614,59.614,0,0,0-6.08-.509q-14.139,0-21.831,10.681t-7.619,30V678.59c0,3.833-2.519,6.944-5.641,6.961H563.422c-3.119-.016-5.641-3.128-5.641-6.961Z" transform="translate(1029.867 -102.004)" fill="#4d4d4d"/>
    <path id="Path_601" data-name="Path 601" d="M431.941,607.071a21.641,21.641,0,0,1,8.6,7.835,24.751,24.751,0,0,1,2.366,11.962v18.57c0,3.865.859,6.294,2.643,7.261s5.988,1.46,12.717,1.46h2.8v20.006h-6.144l-11.03.5-6.821-.261c-9.033-.5-15.362-2.4-19.11-5.746s-5.592-8.88-5.592-16.533V630.133a15.674,15.674,0,0,0-2.243-9.376,11.6,11.6,0,0,0-7.743-3.918v-21.39c5.623-.94,8.756-3.264,9.218-6.949l.584-3.683V561.94c0-8.436,2.212-14.284,6.575-17.577s12.288-4.963,23.412-4.963h5.469l7.1.235,6.144.157v20.659h-4.24c-5.9,0-9.678.549-11.4,1.593s-2.519,3.447-2.519,7.156v18.049a24.853,24.853,0,0,1-2.18,11.8,23.785,23.785,0,0,1-8.6,8.018Z" transform="translate(756.97 -93.158)" fill="#ff5d5d"/>
    <path id="Path_602" data-name="Path 602" d="M454.891,607.974a21.1,21.1,0,0,1-8.583-7.742,25.349,25.349,0,0,1-2.36-12.1V569.285c0-3.913-.857-6.342-2.636-7.346s-5.977-1.479-12.692-1.479h-2.789V540.112c2.115,0,4.169,0,6.13-.159l11.128-.5,6.805.264q24.523,0,24.523,22.647v22.224a15.881,15.881,0,0,0,2.237,9.407,11.518,11.518,0,0,0,7.725,3.964V619.6c-5.641,1-8.735,3.381-9.2,7.109l-.49,3.647a4.679,4.679,0,0,1-.184,1.163v22.065q0,12.816-6.591,17.784t-23.328,5.021h-5.456l-7.2-.264-6.13-.158v-20.9h4.23c5.886,0,9.656-.555,11.342-1.665s2.544-3.488,2.544-7.188V627.95a25.762,25.762,0,0,1,2.177-12.024,23.842,23.842,0,0,1,8.8-7.952Z" transform="translate(800.19 -94.606)" fill="#fcac1f"/>
    <text id="ACCESS_THE_POTENTIAL" data-name="ACCESS THE POTENTIAL" transform="translate(687 680)" fill="#4d4d4d" font-size="50" font-family="Poppins-SemiBold, Poppins" font-weight="600" letter-spacing="0.456em"><tspan x="0" y="0">access the potential</tspan></text>
    <g id="Polygon_30" data-name="Polygon 30" transform="translate(583.068 532.801) rotate(-30)" fill="#fcac1f">
      <path d="M 19.76693725585938 38.42243576049805 L 13.5915470123291 26.16386032104492 L 13.5173168182373 26.01650047302246 L 13.36995697021484 25.94227027893066 L 1.111363410949707 19.76690101623535 L 13.36995697021484 13.59152126312256 L 13.5173168182373 13.51729106903076 L 13.5915470123291 13.3699312210083 L 19.76693725585938 1.111363887786865 L 25.94231796264648 13.3699312210083 L 26.01654815673828 13.51729106903076 L 26.16390800476074 13.59152126312256 L 38.42251205444336 19.76690101623535 L 26.16390800476074 25.94227027893066 L 26.01654815673828 26.01650047302246 L 25.94231796264648 26.16386032104492 L 19.76693725585938 38.42243576049805 Z" stroke="none"/>
      <path d="M 19.76693725585938 2.222724914550781 L 14.03808784484863 13.59488105773926 L 13.88961791992188 13.88959121704102 L 13.59490776062012 14.03806114196777 L 2.222728729248047 19.76690101623535 L 13.59490776062012 25.49573135375977 L 13.88961791992188 25.64420127868652 L 14.03808784484863 25.93891143798828 L 19.76693725585938 37.31107330322266 L 25.49577713012695 25.93891143798828 L 25.64424705505371 25.64420127868652 L 25.93895721435547 25.49573135375977 L 37.31114196777344 19.76690101623535 L 25.93895721435547 14.03806114196777 L 25.64424705505371 13.88959121704102 L 25.49577713012695 13.59488105773926 L 19.76693725585938 2.222724914550781 M 19.76693725585938 0 L 26.38885688781738 13.14498138427734 L 39.53387832641602 19.76690101623535 L 26.38885688781738 26.3888111114502 L 19.76693725585938 39.5338020324707 L 13.1450080871582 26.3888111114502 L -3.814697265625e-06 19.76690101623535 L 13.1450080871582 13.14498138427734 L 19.76693725585938 0 Z" stroke="none" fill="#fcac1f"/>
    </g>
    <g id="Polygon_29" data-name="Polygon 29" transform="translate(348.622 628.548) rotate(-30)" fill="#fcac1f">
      <path d="M 19.76693725585938 38.42243576049805 L 13.5915470123291 26.16386032104492 L 13.5173168182373 26.01650047302246 L 13.36995697021484 25.94227027893066 L 1.111363410949707 19.76690101623535 L 13.36995697021484 13.59152126312256 L 13.5173168182373 13.51729106903076 L 13.5915470123291 13.3699312210083 L 19.76693725585938 1.111363887786865 L 25.94231796264648 13.3699312210083 L 26.01654815673828 13.51729106903076 L 26.16390800476074 13.59152126312256 L 38.42251205444336 19.76690101623535 L 26.16390800476074 25.94227027893066 L 26.01654815673828 26.01650047302246 L 25.94231796264648 26.16386032104492 L 19.76693725585938 38.42243576049805 Z" stroke="none"/>
      <path d="M 19.76693725585938 2.222724914550781 L 14.03808784484863 13.59488105773926 L 13.88961791992188 13.88959121704102 L 13.59490776062012 14.03806114196777 L 2.222728729248047 19.76690101623535 L 13.59490776062012 25.49573135375977 L 13.88961791992188 25.64420127868652 L 14.03808784484863 25.93891143798828 L 19.76693725585938 37.31107330322266 L 25.49577713012695 25.93891143798828 L 25.64424705505371 25.64420127868652 L 25.93895721435547 25.49573135375977 L 37.31114196777344 19.76690101623535 L 25.93895721435547 14.03806114196777 L 25.64424705505371 13.88959121704102 L 25.49577713012695 13.59488105773926 L 19.76693725585938 2.222724914550781 M 19.76693725585938 0 L 26.38885688781738 13.14498138427734 L 39.53387832641602 19.76690101623535 L 26.38885688781738 26.3888111114502 L 19.76693725585938 39.5338020324707 L 13.1450080871582 26.3888111114502 L -3.814697265625e-06 19.76690101623535 L 13.1450080871582 13.14498138427734 L 19.76693725585938 0 Z" stroke="none" fill="#fcac1f"/>
    </g>
    <g id="Polygon_31" data-name="Polygon 31" transform="matrix(0.94, -0.342, 0.342, 0.94, 375.179, 357.987)" fill="#fcac1f">
      <path d="M 24.48690223693848 47.86237335205078 L 16.73033142089844 32.46502685546875 L 16.65610313415527 32.31766510009766 L 16.50874137878418 32.24343490600586 L 1.111368298530579 24.48686599731445 L 16.50874137878418 16.73030662536621 L 16.65610313415527 16.65607643127441 L 16.73033142089844 16.50871658325195 L 24.48690223693848 1.111369252204895 L 32.24348068237305 16.50871658325195 L 32.31771087646484 16.65607643127441 L 32.46507263183594 16.73030662536621 L 47.8624382019043 24.48686599731445 L 32.46507263183594 32.24343490600586 L 32.31771087646484 32.31766510009766 L 32.24348068237305 32.46502685546875 L 24.48690223693848 47.86237335205078 Z" stroke="none"/>
      <path d="M 24.48690223693848 2.222724914550781 L 17.17687225341797 16.73366546630859 L 17.02840232849121 17.02837562561035 L 16.73369216918945 17.17684555053711 L 2.222732543945313 24.48686599731445 L 16.73369216918945 31.79689598083496 L 17.02840232849121 31.94536590576172 L 17.17687225341797 32.24007415771484 L 24.48690223693848 46.75099945068359 L 31.79694175720215 32.24007415771484 L 31.94541168212891 31.94536590576172 L 32.24011993408203 31.79689598083496 L 46.75107192993164 24.48686599731445 L 32.24011993408203 17.17684555053711 L 31.94541168212891 17.02837562561035 L 31.79694175720215 16.73366546630859 L 24.48690223693848 2.222724914550781 M 24.48690223693848 -3.814697265625e-06 L 32.69002151489258 16.28376770019531 L 48.97380065917969 24.48686599731445 L 32.69002151489258 32.68997573852539 L 24.48690223693848 48.97372436523438 L 16.28379058837891 32.68997573852539 L 3.814697265625e-06 24.48686599731445 L 16.28379058837891 16.28376770019531 L 24.48690223693848 -3.814697265625e-06 Z" stroke="none" fill="#fcac1f"/>
    </g>
    <path id="Path_692" data-name="Path 692" d="M0,14.192S15.743,0,33.055,0,69.249,14.192,69.249,14.192" transform="matrix(0.921, -0.391, 0.391, 0.921, 492.033, 669.074)" fill="none" stroke="#ff5d5d" stroke-linecap="round" stroke-width="9"/>
    <path id="Path_693" data-name="Path 693" d="M0,9.381S10.132,0,20.83,0,42.79,9.381,42.79,9.381" transform="matrix(0.921, -0.391, 0.391, 0.921, 509.653, 676.726)" fill="none" stroke="#ffa836" stroke-linecap="round" stroke-width="9"/>
    <path id="Path_694" data-name="Path 694" d="M0,6.735S6.768,0,13.794,0,28.1,6.735,28.1,6.735" transform="matrix(0.921, -0.391, 0.391, 0.921, 522.801, 688.223)" fill="none" stroke="#f7bf99" stroke-linecap="round" stroke-width="9"/>
    <g id="Ellipse_136" data-name="Ellipse 136" transform="translate(537.424 691.876)" fill="#ff5d5d" stroke="#ff5d5d" stroke-width="1">
      <ellipse cx="5.189" cy="5.189" rx="5.189" ry="5.189" stroke="none"/>
      <ellipse cx="5.189" cy="5.189" rx="4.689" ry="4.689" fill="none"/>
    </g>
  </g>
</svg>
